<svg height="512pt" viewBox="0 0 512 512" width="512pt" xmlns="http://www.w3.org/2000/svg"><path d="m421.40625 60.605469-165.40625-30.300781-165.40625 30.300781c-20.429688 17.308593-38.105469 37.765625-52.28125 60.617187l217.6875 30.300782 217.6875-30.300782c-14.175781-22.851562-31.851562-43.308594-52.28125-60.617187zm0 0" fill="#78da96"/><path d="m69.21875 121.222656c14.175781-22.851562 31.851562-43.308594 52.28125-60.617187l149.953125-27.472657-15.453125-2.828124-165.40625 30.300781c-20.429688 17.308593-38.105469 37.765625-52.28125 60.617187l217.6875 30.300782 15.453125-2.148438zm0 0" fill="#6ace85"/><path d="m501.089844 181.828125-245.089844-30.304687-245.089844 30.304687c-7.097656 23.476563-10.910156 48.375-10.910156 74.171875s3.8125 50.695312 10.910156 74.171875l245.089844 30.304687 245.089844-30.304687c7.097656-23.476563 10.910156-48.375 10.910156-74.171875s-3.8125-50.695312-10.910156-74.171875zm0 0" fill="#78da96"/><path d="m41.816406 330.171875c-7.097656-23.476563-10.910156-48.375-10.910156-74.171875s3.8125-50.695312 10.910156-74.171875l229.636719-28.394531-15.453125-1.910156-245.089844 30.304687c-7.097656 23.476563-10.910156 48.375-10.910156 74.171875s3.8125 50.695312 10.910156 74.171875l245.089844 30.304687 15.453125-1.910156zm0 0" fill="#6ace85"/><path d="m421.40625 451.394531-165.40625 30.300781-165.40625-30.300781c-20.429688-17.308593-38.105469-37.765625-52.28125-60.617187l217.6875-30.300782 217.6875 30.300782c-14.175781 22.851562-31.851562 43.308594-52.28125 60.617187zm0 0" fill="#78da96"/><path d="m121.5 451.394531c-20.429688-17.308593-38.105469-37.765625-52.28125-60.617187l202.234375-28.152344-15.453125-2.148438-217.6875 30.300782c14.175781 22.851562 31.851562 43.308594 52.28125 60.617187l165.40625 30.300781 15.453125-2.828124zm0 0" fill="#6ace85"/><path d="m501.089844 181.828125h-490.179688c6.511719-21.53125 15.78125-41.878906 27.402344-60.605469h435.375c11.621094 18.726563 20.890625 39.074219 27.402344 60.605469zm0 0" fill="#6ace85"/><path d="m38.3125 121.222656c-11.621094 18.726563-20.890625 39.074219-27.402344 60.605469h30.90625c6.507813-21.53125 15.78125-41.878906 27.402344-60.605469zm0 0" fill="#63bf7c"/><path d="m421.40625 60.605469h-330.8125c44.617188-37.808594 102.347656-60.605469 165.40625-60.605469s120.789062 22.796875 165.40625 60.605469zm0 0" fill="#6ace85"/><path d="m256 0c-63.058594 0-120.789062 22.796875-165.40625 60.605469h30.90625c40.945312-34.695313 92.9375-56.734375 149.953125-60.132813-5.113281-.300781-10.261719-.472656-15.453125-.472656zm0 0" fill="#63bf7c"/><path d="m501.089844 330.171875h-490.179688c6.511719 21.53125 15.78125 41.878906 27.402344 60.605469h435.375c11.621094-18.726563 20.890625-39.074219 27.402344-60.605469zm0 0" fill="#6ace85"/><path d="m10.910156 330.171875c6.511719 21.53125 15.78125 41.878906 27.402344 60.605469h30.90625c-11.621094-18.726563-20.894531-39.074219-27.402344-60.605469zm0 0" fill="#63bf7c"/><path d="m421.40625 451.394531h-330.8125c44.617188 37.808594 102.347656 60.605469 165.40625 60.605469s120.789062-22.796875 165.40625-60.605469zm0 0" fill="#6ace85"/><path d="m121.5 451.394531h-30.90625c44.617188 37.808594 102.347656 60.605469 165.40625 60.605469 5.191406 0 10.339844-.171875 15.453125-.472656-57.015625-3.398438-109.007813-25.4375-149.953125-60.132813zm0 0" fill="#63bf7c"/><g fill="#514e5b"><path d="m161.578125 267.710938c-4.265625 0-7.726563-3.460938-7.726563-7.726563v-17.089844c0-4.265625 3.460938-7.726562 7.726563-7.726562 4.269531 0 7.726563 3.460937 7.726563 7.726562v17.089844c0 4.265625-3.457032 7.726563-7.726563 7.726563zm0 0"/><path d="m350.421875 267.710938c-4.269531 0-7.726563-3.460938-7.726563-7.726563v-17.089844c0-4.265625 3.457032-7.726562 7.726563-7.726562 4.265625 0 7.726563 3.460937 7.726563 7.726562v17.089844c0 4.265625-3.460938 7.726563-7.726563 7.726563zm0 0"/><path d="m256 276.832031c-11.3125 0-21.925781-4.722656-29.121094-12.953125-2.808594-3.214844-2.480468-8.09375.730469-10.902344 3.210937-2.808593 8.09375-2.480468 10.902344.730469 4.261719 4.875 10.632812 7.671875 17.488281 7.671875 6.851562 0 13.226562-2.796875 17.488281-7.671875 2.808594-3.210937 7.6875-3.539062 10.902344-.730469 3.210937 2.808594 3.539063 7.6875.730469 10.902344-7.195313 8.230469-17.808594 12.953125-29.121094 12.953125zm0 0"/></g></svg>