<?xml version="1.0" standalone="no"?>
<!DOCTYPE svg PUBLIC "-//W3C//DTD SVG 20010904//EN"
 "http://www.w3.org/TR/2001/REC-SVG-20010904/DTD/svg10.dtd">
<svg version="1.0" xmlns="http://www.w3.org/2000/svg"
 width="700.000000pt" height="700.000000pt" viewBox="0 0 700.000000 700.000000"
 preserveAspectRatio="xMidYMid meet">
<metadata>
Created by potrace 1.11, written by Peter Selinger 2001-2013
</metadata>
<g transform="translate(0.000000,700.000000) scale(0.100000,-0.100000)"
fill="#000000" stroke="none">
<path d="M3279 6997 c-2 -3 -48 -7 -101 -11 -53 -3 -103 -8 -110 -10 -7 -3
-36 -7 -64 -10 -28 -3 -86 -13 -130 -21 -43 -9 -92 -19 -109 -21 -137 -24
-456 -124 -629 -199 -298 -128 -613 -316 -835 -500 -521 -430 -878 -938 -1108
-1575 -69 -190 -151 -547 -168 -725 -3 -38 -10 -101 -14 -140 -9 -77 -8 -585
1 -600 3 -6 9 -48 13 -95 21 -257 123 -648 244 -938 127 -303 332 -647 515
-863 220 -258 455 -480 656 -619 19 -13 37 -27 40 -30 3 -3 43 -30 90 -61 484
-319 1068 -523 1623 -567 183 -14 604 -7 729 13 13 2 57 9 98 15 41 6 89 14
105 16 136 22 373 85 545 146 483 170 938 458 1299 819 445 445 767 1007 917
1599 25 98 27 107 45 200 6 30 15 75 20 100 10 55 16 95 24 185 4 39 9 79 12
90 8 36 10 478 2 560 -18 195 -23 238 -49 383 -91 513 -335 1065 -651 1477
-22 28 -42 55 -46 60 -102 135 -334 372 -488 500 -33 28 -62 53 -65 56 -3 3
-48 37 -100 76 -222 163 -454 298 -690 399 -58 25 -118 52 -135 59 -120 53
-499 158 -655 181 -41 6 -77 12 -105 18 -11 2 -49 7 -85 10 -36 4 -78 9 -95
12 -39 6 -540 16 -546 11z"/>
</g>
</svg>
